<svg xmlns="http://www.w3.org/2000/svg"
 xmlns:xlink="http://www.w3.org/1999/xlink"
 width="31px" height="51px"  viewBox="0 0 31 51">
<path fill-rule="evenodd"  fill="#00a3e2"
 d="M5.6778564,49.011475 C6.717041,49.011475 7.755615,48.613037 8.545532,47.817627 C8.545532,47.817627 27.945557,28.282959 27.945557,28.282959 C29.510864,26.707031 29.510864,24.163086 27.945557,22.587158 C27.945557,22.587158 8.545532,3.052002 8.545532,3.052002 C6.9730225,1.46875 4.4139404,1.4594727 2.829956,3.0324707 C1.2462158,4.6052246 1.2371826,7.1643066 2.8101807,8.748047 C2.8101807,8.748047 19.381836,25.434814 19.381836,25.434814 C19.381836,25.434814 2.8101807,42.121582 2.8101807,42.121582 C1.2371826,43.705566 1.2462158,46.264404 2.829956,47.83716 C3.618164,48.620117 4.6483154,49.011475 5.6778564,49.011475 Z"/>
</svg>