<svg xmlns="http://www.w3.org/2000/svg"
 xmlns:xlink="http://www.w3.org/1999/xlink"
 width="31px" height="51px"  viewBox="0 0 31 51">
<path fill-rule="evenodd"  fill="#00a3e2"
 d="M25.103577,49.01123 C24.064209,49.01123 23.025635,48.613037 22.235657,47.817627 C22.235657,47.817627 2.8356934,28.282959 2.8356934,28.282959 C1.2704468,26.706543 1.2704468,24.162842 2.8356934,22.58667 C2.8356934,22.58667 22.235657,3.052246 22.235657,3.052246 C23.808289,1.46875 26.367493,1.4597168 27.951294,3.0324707 C29.535034,4.6052246 29.544067,7.164551 27.971191,8.748047 C27.971191,8.748047 11.399597,25.435059 11.399597,25.435059 C11.399597,25.435059 27.971191,42.121582 27.971191,42.121582 C29.544067,43.705322 29.535034,46.264404 27.951294,47.837402 C27.163269,48.620117 26.132996,49.010986 25.103577,49.01123 Z"/>
</svg>